# xmcd CD database file
#
# Track frame offsets:
#	150
#	9700
#	26412
#	97158
#	123889
#	142643
#	178208
#	209691
#
# Disc length: 3572 seconds
#
# Revision: 0
# Processed by: cddbd v1.5.1PL2 Copyright (c) Steve Scherf et al.
# Submitted via: CDex 1.51
#
DISCID=6a0df208
DTITLE=Altered States - Bluffs II
DYEAR=2006
DGENRE=Jazz
TTITLE0=I
TTITLE1=II
TTITLE2=III
TTITLE3=IV
TTITLE4=V
TTITLE5=VI
TTITLE6=VII
TTITLE7=VIII
EXTD=YEAR: 2006
EXTT0=
EXTT1=
EXTT2=
EXTT3=
EXTT4=
EXTT5=
EXTT6=
EXTT7=
PLAYORDER=
